<?xml version="1.0" encoding="utf-8"?>
<!-- Generator: Adobe Illustrator 19.0.0, SVG Export Plug-In . SVG Version: 6.00 Build 0)  -->
<svg version="1.2" baseProfile="tiny" id="Layer_1" xmlns="http://www.w3.org/2000/svg" xmlns:xlink="http://www.w3.org/1999/xlink"
	 x="0px" y="0px" viewBox="-200 266.8 209.7 260.2" xml:space="preserve">
<path id="XMLID_20_" fill="#7E1416" d="M-91.4,468.2c0.5,0,1,0,1.5,0c1.3,0,2.6-0.1,3.9-0.2c0.3,0,0.6,0,0.9-0.1
	c0.6,0,1.2-0.1,1.7-0.2c11.5-1.2,22.4-4.9,32-10.4c16.8-12.7,27.7-32.8,27.7-55.4c0-38.3-31.1-69.4-69.4-69.4s-69.4,31.1-69.4,69.4
	c0,19.9,8.4,37.9,21.9,50.5c13.5,9.8,30.2,15.7,48.1,15.7C-92.2,468.2-91.8,468.2-91.4,468.2z M-159,401.9
	c0-36.3,29.5-65.8,65.8-65.8c36.3,0,65.8,29.5,65.8,65.8c0,36.3-29.5,65.8-65.8,65.8C-129.5,467.8-159,438.2-159,401.9z"/>
<path id="XMLID_23_" fill="#7E1416" d="M-89.7,471.7c-0.6,0-1.1,0-1.7,0C-90.9,471.8-90.3,471.8-89.7,471.7z"/>
<path id="XMLID_24_" fill="#7E1416" d="M-84.8,471.5c-0.4,0-0.7,0.1-1.1,0.1C-85.5,471.5-85.2,471.5-84.8,471.5z"/>
<path id="XMLID_25_" fill="#7E1416" d="M-93.2,471.8c0.2,0,0.4,0,0.6,0c-20.4-0.1-39.2-7.3-54-19.3c-27.3-17.6-45.5-48.3-45.5-83.2
	c0-54.5,44.4-98.9,98.9-98.9c54.5,0,98.9,44.4,98.9,98.9c0,30.9-14.2,58.5-36.5,76.7c-13.6,13.9-31.9,23.1-52.2,25.3
	c51.8-5.1,92.3-48.9,92.3-102c0-56.5-46-102.5-102.5-102.5s-102.5,46-102.5,102.5S-149.7,471.8-93.2,471.8z"/>
<path id="XMLID_26_" fill="#7E1416" d="M-92.3,468.2c0.3,0,0.6,0,0.9,0c-0.4,0-0.8,0-1.2,0C-92.5,468.2-92.4,468.2-92.3,468.2z"/>
<path id="XMLID_27_" fill="#7E1416" d="M-83.4,467.7c-0.6,0.1-1.2,0.1-1.7,0.2C-84.6,467.8-84,467.8-83.4,467.7z"/>
<path id="XMLID_28_" fill="#7E1416" d="M-86.1,467.9c-1.3,0.1-2.6,0.2-3.9,0.2C-88.6,468.1-87.3,468-86.1,467.9z"/>
<path id="XMLID_29_" fill="#7E1416" d="M-92.3,471.8c0.3,0,0.6,0,0.9,0c-0.4,0-0.8,0-1.2,0C-92.5,471.8-92.4,471.8-92.3,471.8z"/>
<path id="XMLID_30_" fill="#7E1416" d="M-85.9,471.5c-1.3,0.1-2.6,0.2-3.9,0.2C-88.5,471.7-87.2,471.6-85.9,471.5z"/>
<path id="XMLID_31_" fill="#7E1416" d="M-83.1,471.3c-0.6,0.1-1.2,0.1-1.7,0.2C-84.2,471.4-83.7,471.4-83.1,471.3z"/>
<path id="XMLID_32_" fill="#7E1416" d="M-140.8,452.5c-20.7-15-34.2-39.4-34.2-66.9c0-45.6,37.1-82.6,82.7-82.6
	c45.6,0,82.6,37.1,82.6,82.6c0,30.7-16.9,57.5-41.8,71.8c-2.1,1.6-4.2,3-6.5,4.3c9.9-3.8,19-9.1,27.1-15.7
	c15.3-15.6,24.8-36.9,24.8-60.4c0-47.6-38.7-86.3-86.3-86.3c-47.6,0-86.3,38.7-86.3,86.3c0,27,12.5,51.1,32,67
	c5.7,3.7,11.7,6.7,18.1,9.2C-132.9,459.1-137,456-140.8,452.5z"/>
<path id="XMLID_33_" fill="#7E1416" d="M-89.9,468.1c-0.5,0-1,0-1.5,0C-90.9,468.2-90.4,468.2-89.9,468.1z"/>
<path id="XMLID_34_" fill="#7E1416" d="M-92.6,468.2c-18-0.1-34.6-5.9-48.1-15.7c3.7,3.5,7.8,6.6,12.3,9.2c11,4.2,22.9,6.5,35.3,6.5
	C-93,468.2-92.8,468.2-92.6,468.2z"/>
<path id="XMLID_35_" fill="#7E1416" d="M-83.4,467.7c8.9-0.9,17.5-2.9,25.5-6c2.2-1.3,4.4-2.8,6.5-4.3
	C-61.1,462.9-71.9,466.5-83.4,467.7z"/>
<path id="XMLID_36_" fill="#7E1416" d="M-85.2,467.9c-0.3,0-0.6,0-0.9,0.1C-85.8,467.9-85.5,467.9-85.2,467.9z"/>
<path id="XMLID_37_" fill="#7E1416" d="M-30.9,446c-8.1,6.6-17.2,11.9-27.1,15.7c-10.3,6.1-22.4,9.7-35.3,9.7
	c-12.9,0-24.9-3.5-35.3-9.7c-6.4-2.4-12.4-5.5-18.1-9.2c14.8,12,33.6,19.2,54,19.3c0.4,0,0.8,0,1.2,0c0.6,0,1.1,0,1.7,0
	c1.3,0,2.6-0.1,3.9-0.2c0.4,0,0.7-0.1,1.1-0.1c0.6,0,1.2-0.1,1.7-0.2C-62.7,469.1-44.5,459.9-30.9,446z"/>
<path id="XMLID_38_" fill="#7E1416" d="M-85.2,467.9c-0.3,0-0.6,0-0.9,0.1c-1.3,0.1-2.6,0.2-3.9,0.2c-0.5,0-1,0-1.5,0
	c-0.3,0-0.6,0-0.9,0c-0.1,0-0.2,0-0.3,0c-0.2,0-0.4,0-0.6,0c-12.4,0-24.3-2.3-35.3-6.5c10.3,6.1,22.4,9.7,35.3,9.7
	c12.9,0,24.9-3.5,35.3-9.7c-8.1,3.1-16.6,5.2-25.5,6C-84,467.8-84.6,467.8-85.2,467.9z"/>
<path id="XMLID_96_" fill="#7E1416" d="M-184.3,483.2l-15.7,45.2h5.7l4.5-13.7h17.1l4.8,13.7h6.2l-16.7-45.2H-184.3z M-188.2,509.8
	l4.5-13.3c0.9-2.9,1.7-5.7,2.2-8.6c0.6,2.4,1.6,5.6,2.9,9.4l4.3,12.5H-188.2z"/>
<polygon id="XMLID_99_" fill="#7E1416" points="-130.5,518.7 -151.9,483.2 -157.5,483.2 -157.5,528.4 -152.3,528.4 -152.3,492.9 
	-130.8,528.4 -125.3,528.4 -125.3,483.2 -130.5,483.2 "/>
<path id="XMLID_100_" fill="#7E1416" d="M-89.4,509.3c0,5.7-0.8,9.5-2.5,11.5c-1.7,2-4.5,3-8.5,3c-2.3,0-4.3-0.5-5.9-1.5
	c-1.6-1-2.7-2.4-3.4-4.3c-0.7-1.9-1-4.8-1-8.7v-26.1h-5.4v26.1c0,4.8,0.5,8.6,1.6,11.3c1,2.8,2.8,4.9,5.2,6.3
	c2.4,1.5,5.6,2.2,9.4,2.2c3.9,0,7.1-0.8,9.6-2.5c2.4-1.7,4.1-3.9,5-6.5c0.9-2.7,1.4-6.3,1.4-10.8v-26.1h-5.4L-89.4,509.3
	L-89.4,509.3z"/>
<rect id="XMLID_101_" x="-74" y="483.2" fill="#7E1416" width="5.4" height="45.2"/>
<polygon id="XMLID_102_" fill="#7E1416" points="-53.6,507.7 -30.9,507.7 -30.9,502.4 -53.6,502.4 -53.6,488.5 -29.4,488.5 
	-29.4,483.2 -59,483.2 -59,528.4 -28.5,528.4 -28.5,523.1 -53.6,523.1 "/>
<path id="XMLID_103_" fill="#7E1416" d="M8,509.2c-1.1-1.9-2.9-3.4-5.3-4.6c-1.6-0.8-4.7-1.8-9-2.9c-4.4-1.1-7.1-2.2-8.2-3.2
	c-1.1-1.1-1.6-2.4-1.6-4c0-1.9,0.7-3.5,2.2-4.8c1.5-1.3,3.9-2,7.2-2c3.1,0,5.5,0.7,7.1,2.2c1.6,1.5,2.6,3.6,2.8,6.5l5.2-0.4
	c-0.1-2.7-0.8-5-2-7.1c-1.2-2.1-3-3.7-5.3-4.8c-2.3-1.1-5-1.6-8-1.6c-2.8,0-5.3,0.5-7.5,1.5c-2.3,1-4,2.5-5.1,4.5
	c-1.2,2-1.8,4.1-1.8,6.4c0,2.1,0.5,4,1.4,5.6c1,1.7,2.4,3.1,4.4,4.2c1.5,0.9,4.1,1.8,7.9,2.8c3.8,1,6.2,1.7,7.3,2.2
	c1.7,0.7,2.9,1.6,3.7,2.7c0.7,1.1,1.1,2.3,1.1,3.7c0,1.4-0.4,2.7-1.2,3.9c-0.8,1.2-1.9,2.1-3.5,2.8c-1.6,0.7-3.4,1-5.5,1
	c-2.3,0-4.4-0.4-6.3-1.3c-1.9-0.9-3.2-2.1-4.1-3.5c-0.9-1.5-1.4-3.3-1.7-5.6l-5.1,0.5c0.1,3,0.8,5.7,2.2,8.1
	c1.4,2.4,3.4,4.2,5.9,5.4c2.5,1.2,5.6,1.8,9.3,1.8c2.9,0,5.5-0.6,7.9-1.8c2.3-1.2,4.1-2.8,5.4-5c1.2-2.1,1.9-4.4,1.9-6.8
	C9.7,513.2,9.1,511.1,8,509.2z"/>
</svg>
