<?xml version="1.0" encoding="utf-8"?>
<!-- Generator: Adobe Illustrator 19.0.0, SVG Export Plug-In . SVG Version: 6.00 Build 0)  -->
<svg version="1.2" baseProfile="tiny" id="Layer_1" xmlns="http://www.w3.org/2000/svg" xmlns:xlink="http://www.w3.org/1999/xlink"
	 x="0px" y="0px" viewBox="0 0 209.706 260.159" xml:space="preserve">
<path id="XMLID_20_" fill="#7E1416" d="M108.586,201.342c0.496-0.005,0.988-0.023,1.482-0.038c1.295-0.042,2.585-0.108,3.868-0.2
	c0.294-0.022,0.589-0.042,0.882-0.067c0.581-0.047,1.161-0.098,1.739-0.155c11.538-1.238,22.363-4.87,31.992-10.372
	c16.787-12.684,27.66-32.802,27.66-55.416c0-38.281-31.145-69.426-69.426-69.426s-69.426,31.145-69.426,69.426
	c0,19.898,8.428,37.855,21.886,50.525c13.547,9.836,30.173,15.673,48.142,15.738C107.784,201.355,108.185,201.35,108.586,201.342z
	 M40.961,135.095c0-36.293,29.527-65.82,65.82-65.82c36.295,0,65.82,29.527,65.82,65.82c0,36.295-29.525,65.82-65.82,65.82
	C70.488,200.915,40.961,171.389,40.961,135.095z"/>
<path id="XMLID_23_" fill="#7E1416" d="M110.254,204.907c-0.556,0.016-1.111,0.037-1.669,0.042
	C109.142,204.939,109.699,204.925,110.254,204.907z"/>
<path id="XMLID_24_" fill="#7E1416" d="M115.19,204.625c-0.356,0.031-0.715,0.055-1.072,0.082
	C114.475,204.681,114.833,204.654,115.19,204.625z"/>
<path id="XMLID_25_" fill="#7E1416" d="M106.781,204.972c0.201,0,0.4-0.007,0.601-0.008c-20.447-0.07-39.233-7.294-53.998-19.29
	C26.043,168.064,7.9,137.355,7.9,102.486c0-54.523,44.358-98.879,98.881-98.879c54.521,0,98.878,44.356,98.878,98.879
	c0,30.899-14.249,58.528-36.517,76.674c-13.624,13.851-31.871,23.133-52.219,25.311c51.768-5.109,92.343-48.896,92.343-101.985
	C209.265,45.975,163.292,0,106.781,0S4.293,45.975,4.293,102.486S50.27,204.972,106.781,204.972z"/>
<path id="XMLID_26_" fill="#7E1416" d="M107.683,201.365c0.303,0,0.601-0.02,0.903-0.023c-0.401,0.007-0.802,0.013-1.204,0.015
	C107.483,201.358,107.582,201.365,107.683,201.365z"/>
<path id="XMLID_27_" fill="#7E1416" d="M116.556,200.882c-0.578,0.057-1.158,0.108-1.739,0.155
	C115.397,200.987,115.979,200.944,116.556,200.882z"/>
<path id="XMLID_28_" fill="#7E1416" d="M113.935,201.105c-1.283,0.092-2.572,0.158-3.868,0.2
	C111.364,201.268,112.653,201.201,113.935,201.105z"/>
<path id="XMLID_29_" fill="#7E1416" d="M107.683,204.972c0.302,0,0.6-0.02,0.902-0.023c-0.4,0.007-0.801,0.013-1.203,0.015
	C107.483,204.965,107.582,204.972,107.683,204.972z"/>
<path id="XMLID_30_" fill="#7E1416" d="M114.117,204.707c-1.281,0.091-2.57,0.157-3.863,0.2
	C111.549,204.868,112.837,204.802,114.117,204.707z"/>
<path id="XMLID_31_" fill="#7E1416" d="M116.923,204.471c-0.576,0.057-1.154,0.107-1.733,0.154
	C115.768,204.575,116.348,204.532,116.923,204.471z"/>
<path id="XMLID_32_" fill="#7E1416" d="M59.24,185.62c-20.707-15.034-34.209-39.416-34.209-66.905
	c0-45.573,37.078-82.65,82.652-82.65c45.572,0,82.648,37.076,82.648,82.65c0,30.713-16.852,57.548-41.783,71.795
	c-2.073,1.566-4.24,3.012-6.484,4.343c9.882-3.788,19.007-9.116,27.078-15.693c15.321-15.576,24.796-36.921,24.796-60.444
	c0-47.562-38.693-86.256-86.255-86.256c-47.563,0-86.258,38.695-86.258,86.256c0,27,12.478,51.131,31.959,66.959
	c5.669,3.652,11.736,6.735,18.117,9.18C67.074,192.23,62.966,189.128,59.24,185.62z"/>
<path id="XMLID_33_" fill="#7E1416" d="M110.067,201.305c-0.494,0.014-0.986,0.032-1.482,0.038
	C109.081,201.334,109.575,201.321,110.067,201.305z"/>
<path id="XMLID_34_" fill="#7E1416" d="M107.382,201.358c-17.969-0.065-34.595-5.902-48.142-15.738
	c3.726,3.508,7.833,6.61,12.261,9.234c10.964,4.201,22.856,6.511,35.28,6.511C106.982,201.365,107.181,201.359,107.382,201.358z"/>
<path id="XMLID_35_" fill="#7E1416" d="M116.556,200.882c8.9-0.877,17.454-2.943,25.508-6.029c2.244-1.33,4.411-2.776,6.484-4.343
	C138.919,196.013,128.094,199.645,116.556,200.882z"/>
<path id="XMLID_36_" fill="#7E1416" d="M114.817,201.037c-0.293,0.025-0.588,0.045-0.882,0.067
	C114.229,201.083,114.523,201.061,114.817,201.037z"/>
<path id="XMLID_37_" fill="#7E1416" d="M169.141,179.16c-8.071,6.577-17.196,11.905-27.078,15.693
	c-10.347,6.133-22.407,9.668-35.282,9.668c-12.874,0-24.933-3.535-35.28-9.667c-6.381-2.445-12.448-5.529-18.117-9.18
	c14.765,11.996,33.552,19.22,53.998,19.29c0.402-0.002,0.802-0.008,1.203-0.015c0.558-0.006,1.113-0.026,1.669-0.042
	c1.294-0.043,2.582-0.109,3.863-0.2c0.358-0.027,0.716-0.051,1.072-0.082c0.579-0.047,1.157-0.097,1.733-0.154
	C137.271,202.293,155.518,193.011,169.141,179.16z"/>
<path id="XMLID_38_" fill="#7E1416" d="M114.817,201.037c-0.294,0.024-0.587,0.046-0.882,0.067c-1.282,0.096-2.571,0.163-3.868,0.2
	c-0.493,0.016-0.987,0.029-1.482,0.038c-0.302,0.003-0.6,0.023-0.903,0.023c-0.101,0-0.2-0.007-0.301-0.008
	c-0.201,0.001-0.4,0.008-0.601,0.008c-12.424,0-24.316-2.31-35.28-6.511c10.347,6.132,22.406,9.667,35.28,9.667
	c12.875,0,24.935-3.536,35.282-9.668c-8.054,3.087-16.608,5.152-25.508,6.029C115.979,200.944,115.397,200.987,114.817,201.037z"/>
<path id="XMLID_96_" fill="#7E1416" d="M15.698,216.338L0,261.582h5.744l4.491-13.704h17.092l4.765,13.704h6.164l-16.73-45.244
	H15.698z M11.795,242.999l4.491-13.271c0.947-2.856,1.68-5.737,2.201-8.636c0.63,2.444,1.599,5.572,2.899,9.379l4.269,12.528H11.795
	z"/>
<polygon id="XMLID_99_" fill="#7E1416" points="69.539,251.861 48.069,216.338 42.522,216.338 42.522,261.582 47.706,261.582 
	47.706,226.03 69.176,261.582 74.727,261.582 74.727,216.338 69.539,216.338 "/>
<path id="XMLID_100_" fill="#7E1416" d="M110.641,242.446c0,5.678-0.849,9.513-2.539,11.51c-1.691,1.997-4.526,2.994-8.502,2.994
	c-2.325,0-4.29-0.504-5.899-1.511c-1.606-1.007-2.74-2.444-3.402-4.304c-0.659-1.863-0.99-4.762-0.99-8.689v-26.109h-5.406v26.141
	c0,4.794,0.518,8.573,1.56,11.341c1.039,2.768,2.779,4.882,5.213,6.34c2.437,1.462,5.568,2.191,9.397,2.191
	c3.941,0,7.125-0.838,9.552-2.515c2.423-1.676,4.103-3.853,5.033-6.526c0.926-2.673,1.391-6.287,1.391-10.83v-26.141h-5.406V242.446
	z"/>
<rect id="XMLID_101_" x="125.973" y="216.338" fill="#7E1416" width="5.41" height="45.244"/>
<polygon id="XMLID_102_" fill="#7E1416" points="146.439,240.84 169.054,240.84 169.054,235.533 146.439,235.533 146.439,221.677 
	170.586,221.677 170.586,216.338 141.029,216.338 141.029,261.582 171.534,261.582 171.534,256.242 146.439,256.242 "/>
<path id="XMLID_103_" fill="#7E1416" d="M208.005,242.369c-1.134-1.863-2.892-3.399-5.269-4.614
	c-1.638-0.821-4.653-1.786-9.048-2.885c-4.396-1.102-7.115-2.177-8.157-3.226c-1.06-1.05-1.588-2.388-1.588-4.012
	c0-1.87,0.747-3.473,2.244-4.801c1.497-1.324,3.881-1.99,7.153-1.99c3.142,0,5.516,0.729,7.125,2.194
	c1.606,1.458,2.55,3.621,2.828,6.481l5.188-0.437c-0.095-2.652-0.764-5.029-2.008-7.129c-1.247-2.096-3.025-3.684-5.339-4.765
	c-2.314-1.081-4.987-1.62-8.016-1.62c-2.754,0-5.251,0.514-7.502,1.543c-2.251,1.029-3.959,2.536-5.132,4.519
	c-1.169,1.986-1.754,4.121-1.754,6.407c0,2.078,0.475,3.955,1.434,5.632c0.958,1.677,2.413,3.082,4.364,4.212
	c1.507,0.884,4.138,1.824,7.893,2.825c3.755,0.997,6.178,1.733,7.277,2.205c1.708,0.722,2.937,1.613,3.68,2.67
	c0.743,1.06,1.117,2.3,1.117,3.719c0,1.402-0.387,2.691-1.159,3.874c-0.771,1.183-1.948,2.113-3.525,2.789
	c-1.581,0.683-3.402,1.021-5.466,1.021c-2.325,0-4.417-0.447-6.273-1.345c-1.86-0.895-3.23-2.064-4.114-3.515
	s-1.444-3.307-1.687-5.572l-5.103,0.493c0.074,3.025,0.824,5.737,2.247,8.136c1.419,2.395,3.381,4.191,5.882,5.382
	c2.501,1.194,5.6,1.789,9.298,1.789c2.92,0,5.544-0.592,7.879-1.775c2.331-1.18,4.121-2.839,5.367-4.966
	c1.243-2.127,1.867-4.395,1.867-6.805C209.706,246.373,209.139,244.232,208.005,242.369z"/>
</svg>
